<svg id="Layer_1" x="0" y="0" viewBox="0 0 100 100" xml:space="preserve" width="100" height="100" class="jss319"><style type="text/css" id="style1">@-webkit-keyframes animate-fade{0%{fill-opacity:0;stroke-width:1pt}40%{fill-opacity:0}to{stroke-dashoffset:0;fill-opacity:1;stroke-width:0}}@-webkit-keyframes circle{0%{stroke-dashoffset:2000;fill-opacity:0;stroke-width:1pt}20%,40%,80%{fill-opacity:0}60%{fill-opacity:.5}to{stroke-dashoffset:0;fill-opacity:1;stroke-width:0}}@-webkit-keyframes bird{0%{stroke-dashoffset:2000;fill-opacity:0;stroke-width:1pt}20%,40%,80%{fill-opacity:0}60%{fill-opacity:.5}to{stroke-dashoffset:0;fill-opacity:1;stroke-width:0}}</style><linearGradient id="shadow" gradientUnits="userSpaceOnUse" x1="61.327" y1="97.572" x2="167.614" y2="91.574"><stop offset="0" id="stop1" stop-color="#000" stop-opacity="0.9"></stop><stop offset="0.086" id="stop2" stop-color="#000909" stop-opacity="0.823"></stop><stop offset="0.228" id="stop3" stop-color="#002023" stop-opacity="0.695"></stop><stop offset="0.409" id="stop4" stop-color="#00464c" stop-opacity="0.532"></stop><stop offset="0.622" id="stop5" stop-color="#007a85" stop-opacity="0.34"></stop><stop offset="0.859" id="stop6" stop-color="#00bccd" stop-opacity="0.127"></stop><stop offset="1" id="stop7" stop-color="#00e7fc" stop-opacity="0"></stop></linearGradient><g id="g7"><circle cx="50" cy="50" r="50" style="-webkit-animation:circle 5s alternate;animation:circle 5s alternate" stroke-width="0.571" stroke-dasharray="100" fill="#15e0ed" stroke="#15e0ed" stroke-miterlimit="10"></circle><path id="polygon7" transform="scale(.57143)" style="animation-duration:5s;animation-name:animate-fade;animation-delay:5s;animation-fill-mode:backwards" fill="url(#shadow)" d="M162 41.6l2.4 4.2 1.8 3.5 2 4.4 1.7 4.4 1.6 4.7 1.4 5.8 1.1 5.3.5 4.5.5 5.3v6.2l-.3 4.4-.6 5.7-.7 4.4-1.5 6.2-1.9 6.1-1.5 4.1-1.8 3.9-1.8 3.6-2.2 3.9-2.4 3.9-3.5 4.9-2.4 2.9-4 4.4-4.2 4.1-5.1 4.3-5.3 3.7-3 2-4.5 2.5-6.6 3.3-5.1-5.8-36-40.3-26-60.8 6-29.6L141.9 19l4.9 4.2 2.6 2.4 4 4.4 2.9 3.5 3 4z"></path><g id="g289" transform="scale(.57143)"><path d="M80.6 122.1l36 40.3-12-25.2 11.2 11.7L79.3 83 95 63.4l58.7-24.3L95 40.4l38.2-20.1-72.6 11.4-6 29.6-29.3 1.9-5.1 25.1 14.7-12" style="-webkit-animation:bird 7s alternate;animation:bird 7s alternate" stroke-dasharray="100" stroke="#000" stroke-miterlimit="10" id="g287"></path></g></g></svg>