<svg width="192" height="186" viewBox="0 0 192 186" fill="none" xmlns="http://www.w3.org/2000/svg">
<path d="M19.5296 51.6035C17.2246 50.1794 15.6579 46.2366 15.6579 36.026C15.6579 25.5538 17.1248 21.2622 19.5296 19.8285C11.5069 20.9038 5.50977 27.6172 5.50977 35.5804V35.8516C5.50977 43.7276 11.5069 50.441 19.5296 51.6035ZM25.4269 68.0819H36.7725V20.9038H25.4269V68.0819Z" fill="black"/>
<path d="M40.9141 50.7122H52.3495V3.53412H40.9141V50.7122ZM58.157 51.7876C66.1797 50.7122 72.1768 43.9988 72.1768 36.1229V36.026V35.7644C72.1768 27.8885 66.1797 21.1654 58.157 20.0997C60.5518 21.4366 62.1284 25.3794 62.1284 35.5804C62.1284 46.0526 60.6516 50.441 58.157 51.7876Z" fill="black"/>
<path d="M88.8614 51.7875C91.815 51.8747 94.6689 51.0707 97.1635 49.6369C91.5356 50.8866 84.4309 48.2032 84.4309 42.1194V24.8369C84.4309 22.2407 86.0973 20.4582 88.3125 20.0997C79.4516 20.3613 72.4467 27.346 72.4467 35.9388C72.4467 44.7157 79.8208 51.7875 88.8614 51.7875ZM93.7508 34.505H103.979C103.979 30.6591 102.143 20.0997 89.3204 20.0997C91.4458 20.3613 93.7508 22.2407 93.7508 27.2588V34.505Z" fill="black"/>
<path d="M116.981 51.7875C123.617 51.7875 129.335 46.8663 129.335 41.761C129.335 31.0175 112.371 33.3425 112.371 24.7497C112.371 22.9575 113.289 21.6207 115.225 20.1869C108.589 20.1869 103.979 25.1082 103.979 29.3125C103.979 39.2519 120.304 37.2854 120.304 45.3454C120.304 47.8447 119.197 50.1794 116.981 51.7875ZM121.412 29.4094C123.986 29.4094 126.022 27.346 126.022 24.8369C126.022 22.3375 123.896 20.2741 121.412 20.2741C118.827 20.2741 116.702 22.3375 116.702 24.8369C116.702 27.346 118.827 29.4094 121.412 29.4094ZM109.238 51.245C112.371 51.245 114.856 48.8329 114.856 45.791C114.856 42.7491 112.371 40.3272 109.238 40.3272C106.194 40.3272 103.61 42.7491 103.61 45.791C103.61 48.8329 106.194 51.245 109.238 51.245Z" fill="black"/>
<path d="M142.889 51.7875C149.525 51.7875 155.243 46.8663 155.243 41.761C155.243 31.0175 138.279 33.3425 138.279 24.7497C138.279 22.9575 139.197 21.6207 141.133 20.1869C134.497 20.1869 129.887 25.1082 129.887 29.3125C129.887 39.2519 146.212 37.2854 146.212 45.3454C146.212 47.8447 145.104 50.1794 142.889 51.7875ZM147.32 29.4094C149.894 29.4094 151.93 27.346 151.93 24.8369C151.93 22.3375 149.804 20.2741 147.32 20.2741C144.735 20.2741 142.61 22.3375 142.61 24.8369C142.61 27.346 144.735 29.4094 147.32 29.4094ZM135.146 51.245C138.279 51.245 140.764 48.8329 140.764 45.791C140.764 42.7491 138.279 40.3272 135.146 40.3272C132.102 40.3272 129.518 42.7491 129.518 45.791C129.518 48.8329 132.102 51.245 135.146 51.245Z" fill="black"/>
<path d="M163.079 14.2776C166.123 14.2776 168.617 11.8557 168.617 8.90099C168.617 5.85912 166.123 3.44693 163.079 3.44693C159.946 3.44693 157.451 5.85912 157.451 8.90099C157.451 11.8557 159.946 14.2776 163.079 14.2776ZM157.362 50.7122H168.797V20.9038H157.362V50.7122Z" fill="black"/>
<path d="M178.479 51.7876C181.522 51.7876 184.007 49.3657 184.007 46.411C184.007 43.2819 181.522 40.9569 178.479 40.9569C175.345 40.9569 172.851 43.3691 172.851 46.411C172.851 49.3657 175.345 51.7876 178.479 51.7876Z" fill="black"/>
</svg>
